2.5Hzlow3min_grf.mot
version=1
nRows=15
nColumns 19
inDegrees=yes
endheader
time	1_ground_force_vx	1_ground_force_vy	1_ground_force_vz	1_ground_force_px	1_ground_force_py	1_ground_force_pz	1_ground_torque_x	1_ground_torque_y	1_ground_torque_z	2_ground_force_vx	2_ground_force_vy	2_ground_force_vz	2_ground_force_px	2_ground_force_py	2_ground_force_pz	2_ground_torque_x	2_ground_torque_y	2_ground_torque_z
            1.253500	            5.098494	           82.058049	           -8.098533	           -0.247046	            0.006152	           -0.389388	            0.019600	            0.315462	           -0.031134	            5.547000	           34.436288	            5.704903	           -0.240421	            0.005577	           -0.686957	           -0.001233	           -0.007658	           -0.001269
            1.254000	            5.007268	           79.534312	           -8.109127	           -0.247067	            0.006157	           -0.390593	            0.018895	            0.300120	           -0.030600	            5.923067	           34.069847	            5.562645	           -0.239476	            0.005591	           -0.689706	            0.001311	            0.007538	            0.001231
            1.254500	            4.915597	           80.074894	           -8.060725	           -0.248317	            0.006141	           -0.386914	            0.012611	            0.205440	           -0.020681	            5.833190	           32.965957	            5.183318	           -0.238491	            0.005594	           -0.689536	           -0.001786	           -0.010093	           -0.001587
            1.255000	            4.870035	           77.911894	           -8.115742	           -0.245565	            0.006149	           -0.388650	            0.015051	            0.240784	           -0.025081	            5.788937	           32.229697	            5.039926	           -0.240438	            0.005600	           -0.693180	            0.000002	            0.000011	            0.000002
            1.255500	            4.916906	           76.648667	           -7.800275	           -0.246483	            0.006149	           -0.388704	            0.015491	            0.241482	           -0.024575	            5.841125	           30.756512	            5.081577	           -0.239910	            0.005592	           -0.690481	           -0.011055	           -0.058208	           -0.009617
            1.256000	            5.102039	           74.483155	           -7.259735	           -0.247875	            0.006145	           -0.387862	            0.024489	            0.357507	           -0.034846	            5.612754	           29.099168	            4.841123	           -0.240448	            0.005581	           -0.688016	           -0.007622	           -0.039514	           -0.006574
            1.256500	            5.055449	           73.583391	           -7.630333	           -0.245816	            0.006144	           -0.387454	            0.021337	            0.310567	           -0.032205	            5.850971	           27.995292	            4.790153	           -0.241175	            0.005569	           -0.685306	           -0.017418	           -0.083339	           -0.014260
            1.257000	            5.148213	           71.419041	           -7.364701	           -0.245820	            0.006147	           -0.388092	            0.025255	            0.350353	           -0.036128	            5.763835	           26.154139	            4.595910	           -0.245616	            0.005553	           -0.685379	           -0.010912	           -0.049517	           -0.008701
            1.257500	            5.057213	           70.156377	           -7.186461	           -0.245925	            0.006148	           -0.388294	            0.021008	            0.291436	           -0.029853	            5.858884	           25.786014	            4.641484	           -0.240277	            0.005589	           -0.690137	           -0.000447	           -0.001968	           -0.000354
            1.258000	            5.104051	           69.073415	           -6.870221	           -0.245410	            0.006141	           -0.386733	            0.015359	            0.207853	           -0.020674	            5.677323	           24.129174	            4.307153	           -0.243574	            0.005536	           -0.678452	           -0.012640	           -0.053719	           -0.009589
            1.258500	            4.921691	           67.269544	           -6.602360	           -0.245904	            0.006141	           -0.386777	            0.012785	            0.174746	           -0.017151	            5.912278	           23.945537	            4.400253	           -0.238760	            0.005589	           -0.688507	           -0.018820	           -0.076225	           -0.014007
            1.259000	            5.105490	           64.926125	           -6.612863	           -0.245239	            0.006149	           -0.388537	            0.019627	            0.249592	           -0.025421	            5.774846	           23.025961	            3.927746	           -0.244921	            0.005572	           -0.689866	           -0.014809	           -0.059048	           -0.010072
            1.259500	            4.693703	           63.663203	           -6.387971	           -0.246382	            0.006151	           -0.389006	            0.016907	            0.229324	           -0.023010	            5.780142	           21.552942	            3.875562	           -0.243481	            0.005551	           -0.682641	           -0.033171	           -0.123686	           -0.022241
            1.260000	            5.290186	           62.040534	           -6.304695	           -0.246394	            0.006153	           -0.389505	            0.030440	            0.356988	           -0.036278	            5.830356	           20.632035	            3.966113	           -0.246679	            0.005548	           -0.685050	           -0.034078	           -0.120593	           -0.023182
            1.260500	            5.061070	           61.499692	           -6.306445	           -0.245542	            0.006148	           -0.388347	            0.024373	            0.296169	           -0.030370	            5.411968	           19.710273	            3.822222	           -0.241280	            0.005573	           -0.686668	           -0.015130	           -0.055103	           -0.010686
